<?xml version="1.0" encoding="UTF-8" standalone="no"?>
<!-- Created with Inkscape (http://www.inkscape.org/) -->

<svg
   xmlns:dc="http://purl.org/dc/elements/1.1/"
   xmlns:cc="http://creativecommons.org/ns#"
   xmlns:rdf="http://www.w3.org/1999/02/22-rdf-syntax-ns#"
   xmlns:svg="http://www.w3.org/2000/svg"
   xmlns="http://www.w3.org/2000/svg"
   xmlns:sodipodi="http://sodipodi.sourceforge.net/DTD/sodipodi-0.dtd"
   xmlns:inkscape="http://www.inkscape.org/namespaces/inkscape"
   width="70.555557mm"
   height="13.225157mm"
   viewBox="0 0 250.00001 46.860792"
   id="svg4696"
   version="1.1"
   inkscape:version="0.91 r13725"
   sodipodi:docname="delium.svg">
  <defs
     id="defs4698" />
  <sodipodi:namedview
     id="base"
     pagecolor="#ffffff"
     bordercolor="#666666"
     borderopacity="1.0"
     inkscape:pageopacity="0.0"
     inkscape:pageshadow="2"
     inkscape:zoom="0.98414901"
     inkscape:cx="59.433975"
     inkscape:cy="81.964826"
     inkscape:document-units="px"
     inkscape:current-layer="layer1"
     showgrid="false"
     inkscape:window-width="1080"
     inkscape:window-height="675"
     inkscape:window-x="0"
     inkscape:window-y="22"
     inkscape:window-maximized="0"
     fit-margin-top="0"
     fit-margin-left="0"
     fit-margin-right="0"
     fit-margin-bottom="0" />
  <metadata
     id="metadata4701">
    <rdf:RDF>
      <cc:Work
         rdf:about="">
        <dc:format>image/svg+xml</dc:format>
        <dc:type
           rdf:resource="http://purl.org/dc/dcmitype/StillImage" />
        <dc:title></dc:title>
      </cc:Work>
    </rdf:RDF>
  </metadata>
  <g
     inkscape:label="Layer 1"
     inkscape:groupmode="layer"
     id="layer1"
     transform="translate(-99.999989,-368.23215)">
    <g
       id="g5282"
       transform="matrix(0.54953179,0,0,0.54953179,125.74566,134.4982)">
      <g
         style="fill:#4c86e4;fill-opacity:1"
         id="g4628"
         transform="matrix(0.62664934,0,0,0.62664934,-53.850856,318.87509)">
        <g
           transform="matrix(1.0358855,0,0,0.96535767,-45.58162,-350.92006)"
           style="font-style:normal;font-weight:normal;font-size:147.58483887px;line-height:125%;font-family:Sans;letter-spacing:0px;word-spacing:0px;fill:#4c86e4;fill-opacity:1;stroke:none;stroke-width:1px;stroke-linecap:butt;stroke-linejoin:miter;stroke-opacity:1"
           id="g4630">
          <path
             d="m 196.61809,567.45281 c -30.54105,0.86174 -113.373315,0.62334 -141.830955,-9.99272 2.663515,18.42549 9.380062,29.32386 23.58055,31.00214 12.61612,1.3377 100.021785,0.17227 112.733035,0.97524 16.12275,0.003 21.27796,-1.7152 34.02994,2.45897 35.51591,16.54354 17.79885,51.14331 -4.95494,58.46273 -10.54671,2.35838 -19.92652,2.68351 -30.61848,2.85504 l -0.72359,-25.99312 -20.39504,-0.38823 -0.0247,49.47217 c 15.55776,-0.2982 38.43672,0.89122 53.9116,-1.24306 15.19267,-1.94638 29.90848,-12.40302 37.41997,-27.02471 11.6035,-21.35087 8.0021,-51.99875 -10.51259,-67.60877 -14.81366,-12.75514 -34.558,-13.05471 -52.61477,-12.97568 z"
             id="path4632"
             inkscape:connector-curvature="0"
             sodipodi:nodetypes="ccccccccccccccc"
             style="fill:#4c86e4;fill-opacity:1" />
        </g>
        <text
           xml:space="preserve"
           style="font-style:normal;font-weight:normal;font-size:104.35361481px;line-height:125%;font-family:Sans;letter-spacing:0px;word-spacing:0px;fill:#4c86e4;fill-opacity:1;stroke:none;stroke-width:1px;stroke-linecap:butt;stroke-linejoin:miter;stroke-opacity:1"
           x="209.78398"
           y="327.4162"
           id="text4634"
           sodipodi:linespacing="125%"
           transform="scale(1.0904458,0.91705612)"><tspan
             sodipodi:role="line"
             id="tspan4636"
             x="209.78398"
             y="327.4162">ELIU</tspan></text>
        <g
           id="g4638"
           style="font-style:normal;font-weight:normal;font-size:162.94372559px;line-height:125%;font-family:Sans;letter-spacing:0px;word-spacing:0px;fill:#4c86e4;fill-opacity:1;stroke:none;stroke-width:1px;stroke-linecap:butt;stroke-linejoin:miter;stroke-opacity:1"
           transform="matrix(1.0672364,0,0,0.93699952,-26.500875,-278.83724)">
          <path
             sodipodi:nodetypes="cccccccsscccccccccc"
             inkscape:connector-curvature="0"
             id="path4640"
             d="m 524.11133,469.79688 0,115.0039 23.70703,0 0,-87.64648 24.90039,51.08203 20.01953,0 27.15234,-55.08203 c 20.10938,-1.79209 100.04323,0.10205 113.76183,-1.49135 8.04386,-0.93428 16.07345,-7.66717 21.79799,-15.73307 6.9208,-9.75142 10.47252,-21.45119 6.60728,-27.20845 -50.55685,27.478 -45.55685,17.478 -160.7042,21.07545 l -18.60743,45.80078 -21.70898,-45.80078 z m 118.59179,59.06533 -22.8125,0 0,55.93857 22.8125,0 z"
             style="fill:#4c86e4;fill-opacity:1"
             transform="scale(0.93699953,1.0672364)" />
        </g>
      </g>
      <g
         style="fill:#71b969;fill-opacity:1"
         id="g4660"
         transform="matrix(0.62664934,0,0,0.62664934,-52.211334,124.15898)">
        <g
           transform="translate(-2.6163291,310.7258)"
           id="g4642"
           style="fill:#71b969;fill-opacity:1">
          <path
             style="color:#000000;clip-rule:nonzero;display:inline;overflow:visible;visibility:visible;opacity:1;isolation:auto;mix-blend-mode:normal;color-interpolation:sRGB;color-interpolation-filters:linearRGB;solid-color:#000000;solid-opacity:1;fill:#71b969;fill-opacity:1;fill-rule:nonzero;stroke:#a02c2c;stroke-width:0.25349179;stroke-linecap:butt;stroke-linejoin:round;stroke-miterlimit:4;stroke-dasharray:none;stroke-dashoffset:0;stroke-opacity:1;marker:none;color-rendering:auto;image-rendering:auto;shape-rendering:auto;text-rendering:auto;enable-background:accumulate"
             d="m 36.926739,244.72708 c 7.586878,10.72127 38.561036,7.65767 87.112631,8.04124 l -0.15524,21.18865 c 0.95915,-0.47958 -42.478845,2.75193 -60.24693,0.35207 -16.917793,-2.28502 -29.123582,-18.86069 -26.710461,-29.58196 z"
             id="path4644"
             inkscape:connector-curvature="0"
             sodipodi:nodetypes="cccsc" />
          <g
             id="g4646"
             style="fill:#71b969;fill-opacity:1">
            <path
               style="color:#000000;clip-rule:nonzero;display:inline;overflow:visible;visibility:visible;opacity:1;isolation:auto;mix-blend-mode:normal;color-interpolation:sRGB;color-interpolation-filters:linearRGB;solid-color:#000000;solid-opacity:1;fill:#71b969;fill-opacity:1;fill-rule:nonzero;stroke:#a02c2c;stroke-width:0.25349179;stroke-linecap:butt;stroke-linejoin:round;stroke-miterlimit:4;stroke-dasharray:none;stroke-dashoffset:0;stroke-opacity:1;marker:none;color-rendering:auto;image-rendering:auto;shape-rendering:auto;text-rendering:auto;enable-background:accumulate"
               d="m 51.67208,272.81818 c 7.58688,10.72127 24.561035,7.92268 73.11263,8.30625 l -0.15524,20.92364 c 0.95915,-0.47958 -24.62947,0.31411 -44.246925,0.35207 -17.07138,0.033 -31.123585,-18.86069 -28.710465,-29.58196 z"
               id="path4648"
               inkscape:connector-curvature="0"
               sodipodi:nodetypes="cccsc" />
            <path
               sodipodi:nodetypes="cccsc"
               inkscape:connector-curvature="0"
               id="path4650"
               d="m 23.891542,217.72087 c 7.58688,10.72127 79.790838,5.77775 128.342448,6.16132 l 0.10977,21.18865 c 0.95915,-0.47958 -83.973678,2.63185 -101.741758,0.23199 -16.91779,-2.28502 -29.12358,-16.86069 -26.71046,-27.58196 z"
               style="color:#000000;clip-rule:nonzero;display:inline;overflow:visible;visibility:visible;opacity:1;isolation:auto;mix-blend-mode:normal;color-interpolation:sRGB;color-interpolation-filters:linearRGB;solid-color:#000000;solid-opacity:1;fill:#71b969;fill-opacity:1;fill-rule:nonzero;stroke:#a02c2c;stroke-width:0.25349179;stroke-linecap:butt;stroke-linejoin:round;stroke-miterlimit:4;stroke-dasharray:none;stroke-dashoffset:0;stroke-opacity:1;marker:none;color-rendering:auto;image-rendering:auto;shape-rendering:auto;text-rendering:auto;enable-background:accumulate" />
          </g>
        </g>
        <g
           transform="translate(-2.6163291,310.7258)"
           id="g4652"
           style="fill:#71b969;fill-opacity:1">
          <path
             sodipodi:nodetypes="cccsc"
             inkscape:connector-curvature="0"
             id="path4654"
             d="m 717.78882,215.20439 c -7.58688,10.72127 -73.79084,5.77775 -122.34245,6.16132 l -0.10977,21.18865 c -0.95915,-0.47958 83.97368,2.63185 101.74176,0.23199 16.91779,-2.28502 23.12358,-16.86069 20.71046,-27.58196 z"
             style="color:#000000;clip-rule:nonzero;display:inline;overflow:visible;visibility:visible;opacity:1;isolation:auto;mix-blend-mode:normal;color-interpolation:sRGB;color-interpolation-filters:linearRGB;solid-color:#000000;solid-opacity:1;fill:#71b969;fill-opacity:1;fill-rule:nonzero;stroke:#a02c2c;stroke-width:0.25349179;stroke-linecap:butt;stroke-linejoin:round;stroke-miterlimit:4;stroke-dasharray:none;stroke-dashoffset:0;stroke-opacity:1;marker:none;color-rendering:auto;image-rendering:auto;shape-rendering:auto;text-rendering:auto;enable-background:accumulate" />
          <path
             sodipodi:nodetypes="cccsc"
             inkscape:connector-curvature="0"
             id="path4656"
             d="m 702.94553,246.72708 c -7.58688,10.72127 -32.56104,5.65767 -81.11264,6.04124 l 0.15524,21.18865 c -0.95915,-0.47958 42.47885,2.75193 60.24694,0.35207 16.91779,-2.28502 23.12358,-16.86069 20.71046,-27.58196 z"
             style="color:#000000;clip-rule:nonzero;display:inline;overflow:visible;visibility:visible;opacity:1;isolation:auto;mix-blend-mode:normal;color-interpolation:sRGB;color-interpolation-filters:linearRGB;solid-color:#000000;solid-opacity:1;fill:#71b969;fill-opacity:1;fill-rule:nonzero;stroke:#a02c2c;stroke-width:0.25349179;stroke-linecap:butt;stroke-linejoin:round;stroke-miterlimit:4;stroke-dasharray:none;stroke-dashoffset:0;stroke-opacity:1;marker:none;color-rendering:auto;image-rendering:auto;shape-rendering:auto;text-rendering:auto;enable-background:accumulate" />
          <path
             style="color:#000000;clip-rule:nonzero;display:inline;overflow:visible;visibility:visible;opacity:1;isolation:auto;mix-blend-mode:normal;color-interpolation:sRGB;color-interpolation-filters:linearRGB;solid-color:#000000;solid-opacity:1;fill:#71b969;fill-opacity:1;fill-rule:nonzero;stroke:#a02c2c;stroke-width:0.25349179;stroke-linecap:butt;stroke-linejoin:round;stroke-miterlimit:4;stroke-dasharray:none;stroke-dashoffset:0;stroke-opacity:1;marker:none;color-rendering:auto;image-rendering:auto;shape-rendering:auto;text-rendering:auto;enable-background:accumulate"
             d="m 686.20019,274.81818 c -7.58688,10.72127 -16.56104,5.92268 -65.11264,6.30625 l 0.15524,20.92364 c -0.95915,-0.47958 26.47886,2.75193 44.24693,0.35207 16.9178,-2.28502 23.12359,-16.86069 20.71047,-27.58196 z"
             id="path4658"
             inkscape:connector-curvature="0"
             sodipodi:nodetypes="cccsc" />
        </g>
      </g>
    </g>
  </g>
</svg>
