<?xml version="1.0" encoding="UTF-8" standalone="no"?>
<!-- Created with Inkscape (http://www.inkscape.org/) -->

<svg
   xmlns:dc="http://purl.org/dc/elements/1.1/"
   xmlns:cc="http://creativecommons.org/ns#"
   xmlns:rdf="http://www.w3.org/1999/02/22-rdf-syntax-ns#"
   xmlns:svg="http://www.w3.org/2000/svg"
   xmlns="http://www.w3.org/2000/svg"
   xmlns:sodipodi="http://sodipodi.sourceforge.net/DTD/sodipodi-0.dtd"
   xmlns:inkscape="http://www.inkscape.org/namespaces/inkscape"
   width="210mm"
   height="297mm"
   viewBox="0 0 744.09448819 1052.3622047"
   id="svg2"
   version="1.1"
   inkscape:version="0.91 r13725"
   sodipodi:docname="sheet.svg">
  <sodipodi:namedview
     id="base"
     pagecolor="#ffffff"
     bordercolor="#666666"
     borderopacity="1.0"
     inkscape:pageopacity="0.0"
     inkscape:pageshadow="2"
     inkscape:zoom="0.63940861"
     inkscape:cx="399.66328"
     inkscape:cy="640.43822"
     inkscape:document-units="px"
     inkscape:current-layer="layer1"
     showgrid="true"
     inkscape:window-width="1436"
     inkscape:window-height="856"
     inkscape:window-x="0"
     inkscape:window-y="22"
     inkscape:window-maximized="0">
    <inkscape:grid
       visible="false"
       dotted="true"
       id="grid4139"
       type="xygrid" />
  </sodipodi:namedview>
  <defs
     id="defs4">
    <inkscape:path-effect
       effect="bend_path"
       id="path-effect4536"
       is_visible="true"
       bendpath="m 71.152991,419.75125 c 0,0 177.572919,-59.97619 264.423509,-59.43463 94.91248,0.59184 275.57649,59.43463 275.57649,59.43463"
       prop_scale="1"
       scale_y_rel="false"
       vertical="false" />
    <inkscape:path-effect
       effect="bend_path"
       id="path-effect4514"
       is_visible="true"
       bendpath="m 39.661953,455.84195 651.714647,0"
       prop_scale="1"
       scale_y_rel="false"
       vertical="false" />
  </defs>
  <metadata
     id="metadata7">
    <rdf:RDF>
      <cc:Work
         rdf:about="">
        <dc:format>image/svg+xml</dc:format>
        <dc:type
           rdf:resource="http://purl.org/dc/dcmitype/StillImage" />
        <dc:title />
      </cc:Work>
    </rdf:RDF>
  </metadata>
  <g
     id="layer1"
     inkscape:groupmode="layer"
     inkscape:label="Layer 1">
    <g
       id="g4215">
      <path
         sodipodi:nodetypes="ccccccc"
         inkscape:connector-curvature="0"
         id="path4141"
         d="m 272.62946,704.33712 -7.22153,0.0831 13.34436,-18.15587 -11.27674,-22.69465 6.89173,-0.0885 12.4376,21.63291 z"
         inkscape:transform-center-y="-0.86497347"
         inkscape:transform-center-x="3.3670284"
         style="color:#000000;clip-rule:nonzero;display:inline;overflow:visible;visibility:visible;opacity:1;isolation:auto;mix-blend-mode:normal;color-interpolation:sRGB;color-interpolation-filters:linearRGB;solid-color:#000000;solid-opacity:1;fill:#800080;fill-opacity:1;fill-rule:nonzero;stroke:#800080;stroke-width:0.0630741;stroke-linecap:butt;stroke-linejoin:round;stroke-miterlimit:4;stroke-dasharray:none;stroke-dashoffset:0;stroke-opacity:1;marker:none;color-rendering:auto;image-rendering:auto;shape-rendering:auto;text-rendering:auto;enable-background:accumulate" />
      <path
         style="color:#000000;clip-rule:nonzero;display:inline;overflow:visible;visibility:visible;opacity:1;isolation:auto;mix-blend-mode:normal;color-interpolation:sRGB;color-interpolation-filters:linearRGB;solid-color:#000000;solid-opacity:1;fill:#9d4e9d;fill-opacity:1;fill-rule:nonzero;stroke:#800080;stroke-width:0.0630741;stroke-linecap:butt;stroke-linejoin:round;stroke-miterlimit:4;stroke-dasharray:none;stroke-dashoffset:0;stroke-opacity:1;marker:none;color-rendering:auto;image-rendering:auto;shape-rendering:auto;text-rendering:auto;enable-background:accumulate"
         inkscape:transform-center-x="3.3670284"
         inkscape:transform-center-y="-0.86497347"
         d="m 282.11998,704.307 -7.22153,0.0831 13.34436,-18.15587 -11.27673,-22.69464 6.89173,-0.0885 12.43759,21.63291 z"
         id="path4143"
         inkscape:connector-curvature="0"
         sodipodi:nodetypes="ccccccc" />
      <path
         sodipodi:nodetypes="ccccccc"
         inkscape:connector-curvature="0"
         id="path4145"
         d="m 291.80333,704.33656 -7.22153,0.0831 13.34436,-18.15587 -11.27674,-22.69464 6.89173,-0.0885 12.4376,21.63291 z"
         inkscape:transform-center-y="-0.86497347"
         inkscape:transform-center-x="3.3670284"
         style="color:#000000;clip-rule:nonzero;display:inline;overflow:visible;visibility:visible;opacity:1;isolation:auto;mix-blend-mode:normal;color-interpolation:sRGB;color-interpolation-filters:linearRGB;solid-color:#000000;solid-opacity:1;fill:#c08ec0;fill-opacity:1;fill-rule:nonzero;stroke:#800080;stroke-width:0.0630741;stroke-linecap:butt;stroke-linejoin:round;stroke-miterlimit:4;stroke-dasharray:none;stroke-dashoffset:0;stroke-opacity:1;marker:none;color-rendering:auto;image-rendering:auto;shape-rendering:auto;text-rendering:auto;enable-background:accumulate" />
    </g>
    <text
       transform="scale(0.95347611,1.048794)"
       sodipodi:linespacing="125%"
       id="text4147"
       y="712.95679"
       x="199.01239"
       style="font-style:normal;font-weight:normal;font-size:53.22198486px;line-height:125%;font-family:Sans;letter-spacing:0px;word-spacing:0px;fill:#800080;fill-opacity:1;stroke:none;stroke-width:1px;stroke-linecap:butt;stroke-linejoin:miter;stroke-opacity:1"
       xml:space="preserve"><tspan
         y="712.95679"
         x="199.01239"
         id="tspan4149"
         sodipodi:role="line">DELIUM</tspan></text>
    <path
       sodipodi:nodetypes="cccccccccc"
       inkscape:connector-curvature="0"
       id="path4158"
       d="m 206.92754,894.85082 c 25.29207,4.28366 36.24947,-9.48142 50.14079,-13.63975 10.65424,-5.0352 -35.08697,22.3499 -35.08697,22.3499 l 36.1822,-15.86543 -29.68115,18.25052 28.78053,-11.46585 -25.17598,14.54038 20.31677,-4.9648 c -23.1949,11.23365 -20.09267,9.00948 -44.41615,2.91511 0,0 14.73499,-0.79503 -1.06004,-12.12008 z"
       style="fill:none;fill-rule:evenodd;stroke:#a02c2c;stroke-width:1px;stroke-linecap:butt;stroke-linejoin:miter;stroke-opacity:1" />
    <path
       style="fill:none;fill-rule:evenodd;stroke:#a02c2c;stroke-width:1px;stroke-linecap:butt;stroke-linejoin:miter;stroke-opacity:1"
       d="m 202.96974,894.58581 c -0.74714,2.24141 -37.44476,-4.04049 -50.67081,-10.19462 -10.65424,-5.0352 35.08697,22.3499 35.08697,22.3499 l -36.1822,-15.86543 29.68115,18.25052 -28.78053,-11.46585 25.17598,14.54038 -20.31677,-4.9648 c 23.1949,11.23365 44.94617,-0.53002 44.94617,-0.53002 z"
       id="path4160"
       inkscape:connector-curvature="0"
       sodipodi:nodetypes="cccccccccc" />
    <text
       xml:space="preserve"
       style="font-style:normal;font-weight:normal;font-size:53.22198486px;line-height:125%;font-family:Sans;letter-spacing:0px;word-spacing:0px;fill:#800080;fill-opacity:1;stroke:none;stroke-width:1px;stroke-linecap:butt;stroke-linejoin:miter;stroke-opacity:1"
       x="199.56827"
       y="786.73969"
       id="text4211"
       sodipodi:linespacing="125%"
       transform="scale(0.95347609,1.048794)"><tspan
         sodipodi:role="line"
         id="tspan4213"
         x="199.56827"
         y="786.73969">D  LIUM</tspan></text>
    <g
       transform="translate(-39.221532,121.90476)"
       id="g4220">
      <path
         style="color:#000000;clip-rule:nonzero;display:inline;overflow:visible;visibility:visible;opacity:1;isolation:auto;mix-blend-mode:normal;color-interpolation:sRGB;color-interpolation-filters:linearRGB;solid-color:#000000;solid-opacity:1;fill:#800080;fill-opacity:1;fill-rule:nonzero;stroke:#800080;stroke-width:0.0630741;stroke-linecap:butt;stroke-linejoin:round;stroke-miterlimit:4;stroke-dasharray:none;stroke-dashoffset:0;stroke-opacity:1;marker:none;color-rendering:auto;image-rendering:auto;shape-rendering:auto;text-rendering:auto;enable-background:accumulate"
         inkscape:transform-center-x="3.3670284"
         inkscape:transform-center-y="-0.86497347"
         d="m 272.62946,704.33712 -7.22153,0.0831 13.34436,-18.15587 -11.27674,-22.69465 6.89173,-0.0885 12.4376,21.63291 z"
         id="path4222"
         inkscape:connector-curvature="0"
         sodipodi:nodetypes="ccccccc" />
      <path
         sodipodi:nodetypes="ccccccc"
         inkscape:connector-curvature="0"
         id="path4224"
         d="m 282.11998,704.307 -7.22153,0.0831 13.34436,-18.15587 -11.27673,-22.69464 6.89173,-0.0885 12.43759,21.63291 z"
         inkscape:transform-center-y="-0.86497347"
         inkscape:transform-center-x="3.3670284"
         style="color:#000000;clip-rule:nonzero;display:inline;overflow:visible;visibility:visible;opacity:1;isolation:auto;mix-blend-mode:normal;color-interpolation:sRGB;color-interpolation-filters:linearRGB;solid-color:#000000;solid-opacity:1;fill:#9d4e9d;fill-opacity:1;fill-rule:nonzero;stroke:#800080;stroke-width:0.0630741;stroke-linecap:butt;stroke-linejoin:round;stroke-miterlimit:4;stroke-dasharray:none;stroke-dashoffset:0;stroke-opacity:1;marker:none;color-rendering:auto;image-rendering:auto;shape-rendering:auto;text-rendering:auto;enable-background:accumulate" />
      <path
         style="color:#000000;clip-rule:nonzero;display:inline;overflow:visible;visibility:visible;opacity:1;isolation:auto;mix-blend-mode:normal;color-interpolation:sRGB;color-interpolation-filters:linearRGB;solid-color:#000000;solid-opacity:1;fill:#c08ec0;fill-opacity:1;fill-rule:nonzero;stroke:#800080;stroke-width:0.0630741;stroke-linecap:butt;stroke-linejoin:round;stroke-miterlimit:4;stroke-dasharray:none;stroke-dashoffset:0;stroke-opacity:1;marker:none;color-rendering:auto;image-rendering:auto;shape-rendering:auto;text-rendering:auto;enable-background:accumulate"
         inkscape:transform-center-x="3.3670284"
         inkscape:transform-center-y="-0.86497347"
         d="m 291.80333,704.33656 -7.22153,0.0831 13.34436,-18.15587 -11.27674,-22.69464 6.89173,-0.0885 12.4376,21.63291 z"
         id="path4226"
         inkscape:connector-curvature="0"
         sodipodi:nodetypes="ccccccc" />
    </g>
    <text
       sodipodi:linespacing="125%"
       id="text4228"
       y="845.84253"
       x="204.62939"
       style="font-style:normal;font-variant:normal;font-weight:normal;font-stretch:normal;font-size:20px;line-height:125%;font-family:Menlo;-inkscape-font-specification:Menlo;letter-spacing:0px;word-spacing:0px;fill:#000000;fill-opacity:1;stroke:none;stroke-width:1px;stroke-linecap:butt;stroke-linejoin:miter;stroke-opacity:1"
       xml:space="preserve"><tspan
         y="845.84253"
         x="204.62939"
         id="tspan4230"
         sodipodi:role="line">flyweight data</tspan></text>
    <g
       id="text4232"
       style="font-style:normal;font-weight:normal;font-size:147.58483887px;line-height:125%;font-family:Sans;letter-spacing:0px;word-spacing:0px;fill:#000000;fill-opacity:1;stroke:none;stroke-width:1px;stroke-linecap:butt;stroke-linejoin:miter;stroke-opacity:1"
       transform="matrix(1.0358855,0,0,0.96535767,-28.182034,-519.3601)">
      <path
         sodipodi:nodetypes="ccccccccccccccc"
         inkscape:connector-curvature="0"
         id="path4237"
         d="m 196.61809,567.45281 c -30.54105,0.86174 -113.373315,0.62334 -141.830955,-9.99272 2.663515,18.42549 9.380062,27.25209 23.58055,28.93037 12.61612,1.3377 100.021785,2.24404 112.733035,3.04701 16.12275,0.003 21.27796,-1.7152 34.02994,2.45897 35.51591,16.54354 17.79885,51.14331 -4.95494,58.46273 -10.54671,2.35838 -19.92652,2.68351 -30.61848,2.85504 l -0.72359,-30.13666 -20.39504,-0.38823 -0.0247,53.61571 c 15.55776,-0.2982 38.43672,0.89122 53.9116,-1.24306 15.19267,-1.94638 29.90848,-12.40302 37.41997,-27.02471 11.6035,-21.35087 8.0021,-51.99875 -10.51259,-67.60877 -14.81366,-12.75514 -34.558,-13.05471 -52.61477,-12.97568 z" />
    </g>
    <path
       sodipodi:nodetypes="cccsc"
       inkscape:connector-curvature="0"
       id="rect4250"
       d="m 47.291128,49.280827 c 7.586879,10.72127 73.790842,5.77775 122.342452,6.16132 l 0.10977,21.18865 c 0.95915,-0.47958 -83.973684,2.63185 -101.741763,0.23199 -16.917789,-2.28502 -23.12358,-16.86069 -20.710459,-27.58196 z"
       style="color:#000000;clip-rule:nonzero;display:inline;overflow:visible;visibility:visible;opacity:1;isolation:auto;mix-blend-mode:normal;color-interpolation:sRGB;color-interpolation-filters:linearRGB;solid-color:#000000;solid-opacity:1;fill:#800000;fill-opacity:1;fill-rule:nonzero;stroke:#a02c2c;stroke-width:0.25349179;stroke-linecap:butt;stroke-linejoin:round;stroke-miterlimit:4;stroke-dasharray:none;stroke-dashoffset:0;stroke-opacity:1;marker:none;color-rendering:auto;image-rendering:auto;shape-rendering:auto;text-rendering:auto;enable-background:accumulate" />
    <path
       style="color:#000000;clip-rule:nonzero;display:inline;overflow:visible;visibility:visible;opacity:1;isolation:auto;mix-blend-mode:normal;color-interpolation:sRGB;color-interpolation-filters:linearRGB;solid-color:#000000;solid-opacity:1;fill:#800000;fill-opacity:1;fill-rule:nonzero;stroke:#a02c2c;stroke-width:0.25349179;stroke-linecap:butt;stroke-linejoin:round;stroke-miterlimit:4;stroke-dasharray:none;stroke-dashoffset:0;stroke-opacity:1;marker:none;color-rendering:auto;image-rendering:auto;shape-rendering:auto;text-rendering:auto;enable-background:accumulate"
       d="m 60.326325,78.287037 c 7.586878,10.72127 32.561031,5.65767 81.112635,6.04124 l -0.15524,21.188653 c 0.95915,-0.47958 -42.478854,2.75193 -60.246934,0.35207 C 64.118993,103.58398 57.913204,89.008307 60.326325,78.287037 Z"
       id="path4279"
       inkscape:connector-curvature="0"
       sodipodi:nodetypes="cccsc" />
    <path
       sodipodi:nodetypes="cccsc"
       inkscape:connector-curvature="0"
       id="path4281"
       d="m 77.071666,106.37814 c 7.58688,10.72127 16.56103,5.92268 65.112634,6.30625 l -0.15524,20.92364 c 0.95915,-0.47958 -26.47886,2.75193 -44.246934,0.35207 -16.91779,-2.28502 -23.12358,-16.86069 -20.71046,-27.58196 z"
       style="color:#000000;clip-rule:nonzero;display:inline;overflow:visible;visibility:visible;opacity:1;isolation:auto;mix-blend-mode:normal;color-interpolation:sRGB;color-interpolation-filters:linearRGB;solid-color:#000000;solid-opacity:1;fill:#800000;fill-opacity:1;fill-rule:nonzero;stroke:#a02c2c;stroke-width:0.25349179;stroke-linecap:butt;stroke-linejoin:round;stroke-miterlimit:4;stroke-dasharray:none;stroke-dashoffset:0;stroke-opacity:1;marker:none;color-rendering:auto;image-rendering:auto;shape-rendering:auto;text-rendering:auto;enable-background:accumulate" />
    <text
       transform="scale(1.0904458,0.91705612)"
       sodipodi:linespacing="125%"
       id="text4283"
       y="143.74147"
       x="225.7403"
       style="font-style:normal;font-weight:normal;font-size:104.35361481px;line-height:125%;font-family:Sans;letter-spacing:0px;word-spacing:0px;fill:#000000;fill-opacity:1;stroke:none;stroke-width:1px;stroke-linecap:butt;stroke-linejoin:miter;stroke-opacity:1"
       xml:space="preserve"><tspan
         y="143.74147"
         x="225.7403"
         id="tspan4285"
         sodipodi:role="line">ELIU</tspan></text>
    <text
       transform="scale(1.0672364,0.93699952)"
       sodipodi:linespacing="125%"
       id="text4287"
       y="146.77039"
       x="466.65088"
       style="font-style:normal;font-weight:normal;font-size:162.94372559px;line-height:125%;font-family:Sans;letter-spacing:0px;word-spacing:0px;fill:#000000;fill-opacity:1;stroke:none;stroke-width:1px;stroke-linecap:butt;stroke-linejoin:miter;stroke-opacity:1"
       xml:space="preserve"><tspan
         y="146.77039"
         x="466.65088"
         id="tspan4289"
         sodipodi:role="line">M</tspan></text>
    <g
       id="g4588"
       style="fill:#b48262;fill-opacity:1">
      <g
         id="g4291"
         style="font-style:normal;font-weight:normal;font-size:147.58483886999999868px;line-height:125%;font-family:Sans;letter-spacing:0px;word-spacing:0px;fill:#b48262;fill-opacity:1;stroke:none;stroke-width:1px;stroke-linecap:butt;stroke-linejoin:miter;stroke-opacity:1"
         transform="matrix(1.0358855,0,0,0.96535767,-45.58162,-350.92006)">
        <path
           style="fill:#b48262;fill-opacity:1"
           sodipodi:nodetypes="ccccccccccccccc"
           inkscape:connector-curvature="0"
           id="path4293"
           d="m 196.61809,567.45281 c -30.54105,0.86174 -113.373315,0.62334 -141.830955,-9.99272 2.663515,18.42549 9.380062,29.32386 23.58055,31.00214 12.61612,1.3377 100.021785,0.17227 112.733035,0.97524 16.12275,0.003 21.27796,-1.7152 34.02994,2.45897 35.51591,16.54354 17.79885,51.14331 -4.95494,58.46273 -10.54671,2.35838 -19.92652,2.68351 -30.61848,2.85504 l -0.72359,-25.99312 -20.39504,-0.38823 -0.0247,49.47217 c 15.55776,-0.2982 38.43672,0.89122 53.9116,-1.24306 15.19267,-1.94638 29.90848,-12.40302 37.41997,-27.02471 11.6035,-21.35087 8.0021,-51.99875 -10.51259,-67.60877 -14.81366,-12.75514 -34.558,-13.05471 -52.61477,-12.97568 z" />
      </g>
      <text
         transform="scale(1.0904458,0.91705612)"
         sodipodi:linespacing="125%"
         id="text4301"
         y="327.4162"
         x="209.78398"
         style="font-style:normal;font-weight:normal;font-size:104.35361480999999628px;line-height:125%;font-family:Sans;letter-spacing:0px;word-spacing:0px;fill:#b48262;fill-opacity:1;stroke:none;stroke-width:1px;stroke-linecap:butt;stroke-linejoin:miter;stroke-opacity:1"
         xml:space="preserve"><tspan
           y="327.4162"
           x="209.78398"
           id="tspan4303"
           sodipodi:role="line">ELIU</tspan></text>
      <g
         transform="matrix(1.0672364,0,0,0.93699952,-26.500875,-278.83724)"
         style="font-style:normal;font-weight:normal;font-size:162.94372559000001388px;line-height:125%;font-family:Sans;letter-spacing:0px;word-spacing:0px;fill:#b48262;fill-opacity:1;stroke:none;stroke-width:1px;stroke-linecap:butt;stroke-linejoin:miter;stroke-opacity:1"
         id="text4305">
        <path
           style="fill:#b48262;fill-opacity:1"
           d="m 524.11133,469.79688 0,115.0039 23.70703,0 0,-87.64648 24.90039,51.08203 20.01953,0 27.15234,-55.08203 c 20.10938,-1.79209 100.04323,0.10205 113.76183,-1.49135 8.04386,-0.93428 16.07345,-7.66717 21.79799,-15.73307 6.9208,-9.75142 10.47252,-21.45119 6.60728,-27.20845 -50.55685,27.478 -45.55685,17.478 -160.7042,21.07545 l -18.60743,45.80078 -21.70898,-45.80078 z m 118.59179,59.06533 -22.8125,0 0,55.93857 22.8125,0 z"
           transform="scale(0.93699953,1.0672364)"
           id="path4310"
           inkscape:connector-curvature="0"
           sodipodi:nodetypes="cccccccsscccccccccc" />
      </g>
    </g>
    <g
       id="g4582"
       style="fill:#ea0066;fill-opacity:1">
      <path
         style="color:#000000;clip-rule:nonzero;display:inline;overflow:visible;visibility:visible;opacity:1;isolation:auto;mix-blend-mode:normal;color-interpolation:sRGB;color-interpolation-filters:linearRGB;solid-color:#000000;solid-opacity:1;fill:#ea0066;fill-opacity:1;fill-rule:nonzero;stroke:#a02c2c;stroke-width:0.25349179;stroke-linecap:butt;stroke-linejoin:round;stroke-miterlimit:4;stroke-dasharray:none;stroke-dashoffset:0;stroke-opacity:1;marker:none;color-rendering:auto;image-rendering:auto;shape-rendering:auto;text-rendering:auto;enable-background:accumulate"
         d="m 36.926739,244.72708 c 7.586878,10.72127 38.561036,7.65767 87.112631,8.04124 l -0.15524,21.18865 c 0.95915,-0.47958 -42.478845,2.75193 -60.24693,0.35207 -16.917793,-2.28502 -29.123582,-18.86069 -26.710461,-29.58196 z"
         id="path4297"
         inkscape:connector-curvature="0"
         sodipodi:nodetypes="cccsc" />
      <g
         id="g4561"
         style="fill:#ea0066;fill-opacity:1">
        <path
           style="color:#000000;clip-rule:nonzero;display:inline;overflow:visible;visibility:visible;opacity:1;isolation:auto;mix-blend-mode:normal;color-interpolation:sRGB;color-interpolation-filters:linearRGB;solid-color:#000000;solid-opacity:1;fill:#ea0066;fill-opacity:1;fill-rule:nonzero;stroke:#a02c2c;stroke-width:0.25349179;stroke-linecap:butt;stroke-linejoin:round;stroke-miterlimit:4;stroke-dasharray:none;stroke-dashoffset:0;stroke-opacity:1;marker:none;color-rendering:auto;image-rendering:auto;shape-rendering:auto;text-rendering:auto;enable-background:accumulate"
           d="m 51.67208,272.81818 c 7.58688,10.72127 24.561035,7.92268 73.11263,8.30625 l -0.15524,20.92364 c 0.95915,-0.47958 -24.62947,0.31411 -44.246925,0.35207 -17.07138,0.033 -31.123585,-18.86069 -28.710465,-29.58196 z"
           id="path4299"
           inkscape:connector-curvature="0"
           sodipodi:nodetypes="cccsc" />
        <path
           sodipodi:nodetypes="cccsc"
           inkscape:connector-curvature="0"
           id="path4316"
           d="m 23.891542,217.72087 c 7.58688,10.72127 79.790838,5.77775 128.342448,6.16132 l 0.10977,21.18865 c 0.95915,-0.47958 -83.973678,2.63185 -101.741758,0.23199 -16.91779,-2.28502 -29.12358,-16.86069 -26.71046,-27.58196 z"
           style="color:#000000;clip-rule:nonzero;display:inline;overflow:visible;visibility:visible;opacity:1;isolation:auto;mix-blend-mode:normal;color-interpolation:sRGB;color-interpolation-filters:linearRGB;solid-color:#000000;solid-opacity:1;fill:#ea0066;fill-opacity:1;fill-rule:nonzero;stroke:#a02c2c;stroke-width:0.25349179;stroke-linecap:butt;stroke-linejoin:round;stroke-miterlimit:4;stroke-dasharray:none;stroke-dashoffset:0;stroke-opacity:1;marker:none;color-rendering:auto;image-rendering:auto;shape-rendering:auto;text-rendering:auto;enable-background:accumulate" />
      </g>
    </g>
    <g
       id="g4577"
       style="fill:#eab93d;fill-opacity:0.94117647">
      <path
         sodipodi:nodetypes="cccsc"
         inkscape:connector-curvature="0"
         id="path4318"
         d="m 717.78882,215.20439 c -7.58688,10.72127 -73.79084,5.77775 -122.34245,6.16132 l -0.10977,21.18865 c -0.95915,-0.47958 83.97368,2.63185 101.74176,0.23199 16.91779,-2.28502 23.12358,-16.86069 20.71046,-27.58196 z"
         style="color:#000000;clip-rule:nonzero;display:inline;overflow:visible;visibility:visible;opacity:1;isolation:auto;mix-blend-mode:normal;color-interpolation:sRGB;color-interpolation-filters:linearRGB;solid-color:#000000;solid-opacity:1;fill:#eab93d;fill-opacity:0.94117647;fill-rule:nonzero;stroke:#a02c2c;stroke-width:0.25349179;stroke-linecap:butt;stroke-linejoin:round;stroke-miterlimit:4;stroke-dasharray:none;stroke-dashoffset:0;stroke-opacity:1;marker:none;color-rendering:auto;image-rendering:auto;shape-rendering:auto;text-rendering:auto;enable-background:accumulate" />
      <path
         sodipodi:nodetypes="cccsc"
         inkscape:connector-curvature="0"
         id="path4320"
         d="m 702.94553,246.72708 c -7.58688,10.72127 -32.56104,5.65767 -81.11264,6.04124 l 0.15524,21.18865 c -0.95915,-0.47958 42.47885,2.75193 60.24694,0.35207 16.91779,-2.28502 23.12358,-16.86069 20.71046,-27.58196 z"
         style="color:#000000;clip-rule:nonzero;display:inline;overflow:visible;visibility:visible;opacity:1;isolation:auto;mix-blend-mode:normal;color-interpolation:sRGB;color-interpolation-filters:linearRGB;solid-color:#000000;solid-opacity:1;fill:#eab93d;fill-opacity:0.94117647;fill-rule:nonzero;stroke:#a02c2c;stroke-width:0.25349179;stroke-linecap:butt;stroke-linejoin:round;stroke-miterlimit:4;stroke-dasharray:none;stroke-dashoffset:0;stroke-opacity:1;marker:none;color-rendering:auto;image-rendering:auto;shape-rendering:auto;text-rendering:auto;enable-background:accumulate" />
      <path
         style="color:#000000;clip-rule:nonzero;display:inline;overflow:visible;visibility:visible;opacity:1;isolation:auto;mix-blend-mode:normal;color-interpolation:sRGB;color-interpolation-filters:linearRGB;solid-color:#000000;solid-opacity:1;fill:#eab93d;fill-opacity:0.94117647;fill-rule:nonzero;stroke:#a02c2c;stroke-width:0.25349179;stroke-linecap:butt;stroke-linejoin:round;stroke-miterlimit:4;stroke-dasharray:none;stroke-dashoffset:0;stroke-opacity:1;marker:none;color-rendering:auto;image-rendering:auto;shape-rendering:auto;text-rendering:auto;enable-background:accumulate"
         d="m 686.20019,274.81818 c -7.58688,10.72127 -16.56104,5.92268 -65.11264,6.30625 l 0.15524,20.92364 c -0.95915,-0.47958 26.47886,2.75193 44.24693,0.35207 16.9178,-2.28502 23.12359,-16.86069 20.71047,-27.58196 z"
         id="path4322"
         inkscape:connector-curvature="0"
         sodipodi:nodetypes="cccsc" />
    </g>
    <g
       id="g4324"
       style="font-style:normal;font-weight:normal;font-size:147.58483887px;line-height:125%;font-family:Sans;letter-spacing:0px;word-spacing:0px;fill:#000000;fill-opacity:1;stroke:none;stroke-width:1px;stroke-linecap:butt;stroke-linejoin:miter;stroke-opacity:1"
       transform="matrix(0.93481931,-0.01269015,0,0.87117253,-11.554119,-77.101768)" />
    <g
       id="text4334"
       style="font-style:normal;font-weight:normal;font-size:94.17235565px;line-height:125%;font-family:Sans;letter-spacing:0px;word-spacing:0px;fill:#000000;fill-opacity:1;stroke:none;stroke-width:1px;stroke-linecap:butt;stroke-linejoin:miter;stroke-opacity:1"
       transform="matrix(1.0904458,-0.01480277,0,0.91705612,0,0)" />
    <g
       transform="matrix(0.96311146,-0.01307421,0,0.84558115,5.665013,-12.285461)"
       style="font-style:normal;font-weight:normal;font-size:162.94372559px;line-height:125%;font-family:Sans;letter-spacing:0px;word-spacing:0px;fill:#000000;fill-opacity:1;stroke:none;stroke-width:1px;stroke-linecap:butt;stroke-linejoin:miter;stroke-opacity:1"
       id="g4338" />
    <g
       style="fill:#242277;fill-opacity:1"
       id="g4596"
       transform="translate(-2.6163291,176.7258)">
      <g
         transform="matrix(1.0358855,0,0,0.96535767,-45.58162,-350.92006)"
         style="font-style:normal;font-weight:normal;font-size:147.58483887px;line-height:125%;font-family:Sans;letter-spacing:0px;word-spacing:0px;fill:#242277;fill-opacity:1;stroke:none;stroke-width:1px;stroke-linecap:butt;stroke-linejoin:miter;stroke-opacity:1"
         id="g4598">
        <path
           d="m 196.61809,567.45281 c -30.54105,0.86174 -113.373315,0.62334 -141.830955,-9.99272 2.663515,18.42549 9.380062,29.32386 23.58055,31.00214 12.61612,1.3377 100.021785,0.17227 112.733035,0.97524 16.12275,0.003 21.27796,-1.7152 34.02994,2.45897 35.51591,16.54354 17.79885,51.14331 -4.95494,58.46273 -10.54671,2.35838 -19.92652,2.68351 -30.61848,2.85504 l -0.72359,-25.99312 -20.39504,-0.38823 -0.0247,49.47217 c 15.55776,-0.2982 38.43672,0.89122 53.9116,-1.24306 15.19267,-1.94638 29.90848,-12.40302 37.41997,-27.02471 11.6035,-21.35087 8.0021,-51.99875 -10.51259,-67.60877 -14.81366,-12.75514 -34.558,-13.05471 -52.61477,-12.97568 z"
           id="path4600"
           inkscape:connector-curvature="0"
           sodipodi:nodetypes="ccccccccccccccc"
           style="fill:#242277;fill-opacity:1" />
      </g>
      <text
         xml:space="preserve"
         style="font-style:normal;font-weight:normal;font-size:104.35361481px;line-height:125%;font-family:Sans;letter-spacing:0px;word-spacing:0px;fill:#242277;fill-opacity:1;stroke:none;stroke-width:1px;stroke-linecap:butt;stroke-linejoin:miter;stroke-opacity:1"
         x="209.78398"
         y="327.4162"
         id="text4602"
         sodipodi:linespacing="125%"
         transform="scale(1.0904458,0.91705612)"><tspan
           sodipodi:role="line"
           id="tspan4604"
           x="209.78398"
           y="327.4162">ELIU</tspan></text>
      <g
         id="g4606"
         style="font-style:normal;font-weight:normal;font-size:162.94372559px;line-height:125%;font-family:Sans;letter-spacing:0px;word-spacing:0px;fill:#242277;fill-opacity:1;stroke:none;stroke-width:1px;stroke-linecap:butt;stroke-linejoin:miter;stroke-opacity:1"
         transform="matrix(1.0672364,0,0,0.93699952,-26.500875,-278.83724)">
        <path
           sodipodi:nodetypes="cccccccsscccccccccc"
           inkscape:connector-curvature="0"
           id="path4608"
           transform="scale(0.93699953,1.0672364)"
           d="m 524.11133,469.79688 0,115.0039 23.70703,0 0,-87.64648 24.90039,51.08203 20.01953,0 27.15234,-55.08203 c 20.10938,-1.79209 100.04323,0.10205 113.76183,-1.49135 8.04386,-0.93428 16.07345,-7.66717 21.79799,-15.73307 6.9208,-9.75142 10.47252,-21.45119 6.60728,-27.20845 -50.55685,27.478 -45.55685,17.478 -160.7042,21.07545 l -18.60743,45.80078 -21.70898,-45.80078 z m 118.59179,59.06533 -22.8125,0 0,55.93857 22.8125,0 z"
           style="fill:#242277;fill-opacity:1" />
      </g>
    </g>
    <g
       style="fill:#ea6700;fill-opacity:1"
       id="g4610"
       transform="translate(-2.6163291,176.7258)">
      <path
         sodipodi:nodetypes="cccsc"
         inkscape:connector-curvature="0"
         id="path4612"
         d="m 36.926739,244.72708 c 7.586878,10.72127 38.561036,7.65767 87.112631,8.04124 l -0.15524,21.18865 c 0.95915,-0.47958 -42.478845,2.75193 -60.24693,0.35207 -16.917793,-2.28502 -29.123582,-18.86069 -26.710461,-29.58196 z"
         style="color:#000000;clip-rule:nonzero;display:inline;overflow:visible;visibility:visible;opacity:1;isolation:auto;mix-blend-mode:normal;color-interpolation:sRGB;color-interpolation-filters:linearRGB;solid-color:#000000;solid-opacity:1;fill:#ea6700;fill-opacity:1;fill-rule:nonzero;stroke:#a02c2c;stroke-width:0.25349179;stroke-linecap:butt;stroke-linejoin:round;stroke-miterlimit:4;stroke-dasharray:none;stroke-dashoffset:0;stroke-opacity:1;marker:none;color-rendering:auto;image-rendering:auto;shape-rendering:auto;text-rendering:auto;enable-background:accumulate" />
      <g
         style="fill:#ea6700;fill-opacity:1"
         id="g4614">
        <path
           sodipodi:nodetypes="cccsc"
           inkscape:connector-curvature="0"
           id="path4616"
           d="m 51.67208,272.81818 c 7.58688,10.72127 24.561035,7.92268 73.11263,8.30625 l -0.15524,20.92364 c 0.95915,-0.47958 -24.62947,0.31411 -44.246925,0.35207 -17.07138,0.033 -31.123585,-18.86069 -28.710465,-29.58196 z"
           style="color:#000000;clip-rule:nonzero;display:inline;overflow:visible;visibility:visible;opacity:1;isolation:auto;mix-blend-mode:normal;color-interpolation:sRGB;color-interpolation-filters:linearRGB;solid-color:#000000;solid-opacity:1;fill:#ea6700;fill-opacity:1;fill-rule:nonzero;stroke:#a02c2c;stroke-width:0.25349179;stroke-linecap:butt;stroke-linejoin:round;stroke-miterlimit:4;stroke-dasharray:none;stroke-dashoffset:0;stroke-opacity:1;marker:none;color-rendering:auto;image-rendering:auto;shape-rendering:auto;text-rendering:auto;enable-background:accumulate" />
        <path
           style="color:#000000;clip-rule:nonzero;display:inline;overflow:visible;visibility:visible;opacity:1;isolation:auto;mix-blend-mode:normal;color-interpolation:sRGB;color-interpolation-filters:linearRGB;solid-color:#000000;solid-opacity:1;fill:#ea6700;fill-opacity:1;fill-rule:nonzero;stroke:#a02c2c;stroke-width:0.25349179;stroke-linecap:butt;stroke-linejoin:round;stroke-miterlimit:4;stroke-dasharray:none;stroke-dashoffset:0;stroke-opacity:1;marker:none;color-rendering:auto;image-rendering:auto;shape-rendering:auto;text-rendering:auto;enable-background:accumulate"
           d="m 23.891542,217.72087 c 7.58688,10.72127 79.790838,5.77775 128.342448,6.16132 l 0.10977,21.18865 c 0.95915,-0.47958 -83.973678,2.63185 -101.741758,0.23199 -16.91779,-2.28502 -29.12358,-16.86069 -26.71046,-27.58196 z"
           id="path4618"
           inkscape:connector-curvature="0"
           sodipodi:nodetypes="cccsc" />
      </g>
    </g>
    <g
       style="fill:#ea6700;fill-opacity:1"
       id="g4620"
       transform="translate(-2.6163291,176.7258)">
      <path
         style="color:#000000;clip-rule:nonzero;display:inline;overflow:visible;visibility:visible;opacity:1;isolation:auto;mix-blend-mode:normal;color-interpolation:sRGB;color-interpolation-filters:linearRGB;solid-color:#000000;solid-opacity:1;fill:#ea6700;fill-opacity:1;fill-rule:nonzero;stroke:#a02c2c;stroke-width:0.25349179;stroke-linecap:butt;stroke-linejoin:round;stroke-miterlimit:4;stroke-dasharray:none;stroke-dashoffset:0;stroke-opacity:1;marker:none;color-rendering:auto;image-rendering:auto;shape-rendering:auto;text-rendering:auto;enable-background:accumulate"
         d="m 717.78882,215.20439 c -7.58688,10.72127 -73.79084,5.77775 -122.34245,6.16132 l -0.10977,21.18865 c -0.95915,-0.47958 83.97368,2.63185 101.74176,0.23199 16.91779,-2.28502 23.12358,-16.86069 20.71046,-27.58196 z"
         id="path4622"
         inkscape:connector-curvature="0"
         sodipodi:nodetypes="cccsc" />
      <path
         style="color:#000000;clip-rule:nonzero;display:inline;overflow:visible;visibility:visible;opacity:1;isolation:auto;mix-blend-mode:normal;color-interpolation:sRGB;color-interpolation-filters:linearRGB;solid-color:#000000;solid-opacity:1;fill:#ea6700;fill-opacity:1;fill-rule:nonzero;stroke:#a02c2c;stroke-width:0.25349179;stroke-linecap:butt;stroke-linejoin:round;stroke-miterlimit:4;stroke-dasharray:none;stroke-dashoffset:0;stroke-opacity:1;marker:none;color-rendering:auto;image-rendering:auto;shape-rendering:auto;text-rendering:auto;enable-background:accumulate"
         d="m 702.94553,246.72708 c -7.58688,10.72127 -32.56104,5.65767 -81.11264,6.04124 l 0.15524,21.18865 c -0.95915,-0.47958 42.47885,2.75193 60.24694,0.35207 16.91779,-2.28502 23.12358,-16.86069 20.71046,-27.58196 z"
         id="path4624"
         inkscape:connector-curvature="0"
         sodipodi:nodetypes="cccsc" />
      <path
         sodipodi:nodetypes="cccsc"
         inkscape:connector-curvature="0"
         id="path4626"
         d="m 686.20019,274.81818 c -7.58688,10.72127 -16.56104,5.92268 -65.11264,6.30625 l 0.15524,20.92364 c -0.95915,-0.47958 26.47886,2.75193 44.24693,0.35207 16.9178,-2.28502 23.12359,-16.86069 20.71047,-27.58196 z"
         style="color:#000000;clip-rule:nonzero;display:inline;overflow:visible;visibility:visible;opacity:1;isolation:auto;mix-blend-mode:normal;color-interpolation:sRGB;color-interpolation-filters:linearRGB;solid-color:#000000;solid-opacity:1;fill:#ea6700;fill-opacity:1;fill-rule:nonzero;stroke:#a02c2c;stroke-width:0.25349179;stroke-linecap:butt;stroke-linejoin:round;stroke-miterlimit:4;stroke-dasharray:none;stroke-dashoffset:0;stroke-opacity:1;marker:none;color-rendering:auto;image-rendering:auto;shape-rendering:auto;text-rendering:auto;enable-background:accumulate" />
    </g>
    <g
       transform="translate(-2.6163291,310.7258)"
       id="g4628"
       style="fill:#4c86e4;fill-opacity:1">
      <g
         id="g4630"
         style="font-style:normal;font-weight:normal;font-size:147.58483886999999868px;line-height:125%;font-family:Sans;letter-spacing:0px;word-spacing:0px;fill:#4c86e4;fill-opacity:1;stroke:none;stroke-width:1px;stroke-linecap:butt;stroke-linejoin:miter;stroke-opacity:1"
         transform="matrix(1.0358855,0,0,0.96535767,-45.58162,-350.92006)">
        <path
           style="fill:#4c86e4;fill-opacity:1"
           sodipodi:nodetypes="ccccccccccccccc"
           inkscape:connector-curvature="0"
           id="path4632"
           d="m 196.61809,567.45281 c -30.54105,0.86174 -113.373315,0.62334 -141.830955,-9.99272 2.663515,18.42549 9.380062,29.32386 23.58055,31.00214 12.61612,1.3377 100.021785,0.17227 112.733035,0.97524 16.12275,0.003 21.27796,-1.7152 34.02994,2.45897 35.51591,16.54354 17.79885,51.14331 -4.95494,58.46273 -10.54671,2.35838 -19.92652,2.68351 -30.61848,2.85504 l -0.72359,-25.99312 -20.39504,-0.38823 -0.0247,49.47217 c 15.55776,-0.2982 38.43672,0.89122 53.9116,-1.24306 15.19267,-1.94638 29.90848,-12.40302 37.41997,-27.02471 11.6035,-21.35087 8.0021,-51.99875 -10.51259,-67.60877 -14.81366,-12.75514 -34.558,-13.05471 -52.61477,-12.97568 z" />
      </g>
      <text
         transform="scale(1.0904458,0.91705612)"
         sodipodi:linespacing="125%"
         id="text4634"
         y="327.4162"
         x="209.78398"
         style="font-style:normal;font-weight:normal;font-size:104.35361480999999628px;line-height:125%;font-family:Sans;letter-spacing:0px;word-spacing:0px;fill:#4c86e4;fill-opacity:1;stroke:none;stroke-width:1px;stroke-linecap:butt;stroke-linejoin:miter;stroke-opacity:1"
         xml:space="preserve"><tspan
           y="327.4162"
           x="209.78398"
           id="tspan4636"
           sodipodi:role="line">ELIU</tspan></text>
      <g
         transform="matrix(1.0672364,0,0,0.93699952,-26.500875,-278.83724)"
         style="font-style:normal;font-weight:normal;font-size:162.94372559000001388px;line-height:125%;font-family:Sans;letter-spacing:0px;word-spacing:0px;fill:#4c86e4;fill-opacity:1;stroke:none;stroke-width:1px;stroke-linecap:butt;stroke-linejoin:miter;stroke-opacity:1"
         id="g4638">
        <path
           style="fill:#4c86e4;fill-opacity:1"
           d="m 524.11133,469.79688 0,115.0039 23.70703,0 0,-87.64648 24.90039,51.08203 20.01953,0 27.15234,-55.08203 c 20.10938,-1.79209 100.04323,0.10205 113.76183,-1.49135 8.04386,-0.93428 16.07345,-7.66717 21.79799,-15.73307 6.9208,-9.75142 10.47252,-21.45119 6.60728,-27.20845 -50.55685,27.478 -45.55685,17.478 -160.7042,21.07545 l -18.60743,45.80078 -21.70898,-45.80078 z m 118.59179,59.06533 -22.8125,0 0,55.93857 22.8125,0 z"
           transform="scale(0.93699953,1.0672364)"
           id="path4640"
           inkscape:connector-curvature="0"
           sodipodi:nodetypes="cccccccsscccccccccc" />
      </g>
    </g>
    <g
       id="g4660"
       style="fill:#71b969;fill-opacity:1">
      <g
         style="fill:#71b969;fill-opacity:1"
         id="g4642"
         transform="translate(-2.6163291,310.7258)">
        <path
           sodipodi:nodetypes="cccsc"
           inkscape:connector-curvature="0"
           id="path4644"
           d="m 36.926739,244.72708 c 7.586878,10.72127 38.561036,7.65767 87.112631,8.04124 l -0.15524,21.18865 c 0.95915,-0.47958 -42.478845,2.75193 -60.24693,0.35207 -16.917793,-2.28502 -29.123582,-18.86069 -26.710461,-29.58196 z"
           style="color:#000000;clip-rule:nonzero;display:inline;overflow:visible;visibility:visible;opacity:1;isolation:auto;mix-blend-mode:normal;color-interpolation:sRGB;color-interpolation-filters:linearRGB;solid-color:#000000;solid-opacity:1;fill:#71b969;fill-opacity:1;fill-rule:nonzero;stroke:#a02c2c;stroke-width:0.25349179;stroke-linecap:butt;stroke-linejoin:round;stroke-miterlimit:4;stroke-dasharray:none;stroke-dashoffset:0;stroke-opacity:1;marker:none;color-rendering:auto;image-rendering:auto;shape-rendering:auto;text-rendering:auto;enable-background:accumulate" />
        <g
           style="fill:#71b969;fill-opacity:1"
           id="g4646">
          <path
             sodipodi:nodetypes="cccsc"
             inkscape:connector-curvature="0"
             id="path4648"
             d="m 51.67208,272.81818 c 7.58688,10.72127 24.561035,7.92268 73.11263,8.30625 l -0.15524,20.92364 c 0.95915,-0.47958 -24.62947,0.31411 -44.246925,0.35207 -17.07138,0.033 -31.123585,-18.86069 -28.710465,-29.58196 z"
             style="color:#000000;clip-rule:nonzero;display:inline;overflow:visible;visibility:visible;opacity:1;isolation:auto;mix-blend-mode:normal;color-interpolation:sRGB;color-interpolation-filters:linearRGB;solid-color:#000000;solid-opacity:1;fill:#71b969;fill-opacity:1;fill-rule:nonzero;stroke:#a02c2c;stroke-width:0.25349179;stroke-linecap:butt;stroke-linejoin:round;stroke-miterlimit:4;stroke-dasharray:none;stroke-dashoffset:0;stroke-opacity:1;marker:none;color-rendering:auto;image-rendering:auto;shape-rendering:auto;text-rendering:auto;enable-background:accumulate" />
          <path
             style="color:#000000;clip-rule:nonzero;display:inline;overflow:visible;visibility:visible;opacity:1;isolation:auto;mix-blend-mode:normal;color-interpolation:sRGB;color-interpolation-filters:linearRGB;solid-color:#000000;solid-opacity:1;fill:#71b969;fill-opacity:1;fill-rule:nonzero;stroke:#a02c2c;stroke-width:0.25349179;stroke-linecap:butt;stroke-linejoin:round;stroke-miterlimit:4;stroke-dasharray:none;stroke-dashoffset:0;stroke-opacity:1;marker:none;color-rendering:auto;image-rendering:auto;shape-rendering:auto;text-rendering:auto;enable-background:accumulate"
             d="m 23.891542,217.72087 c 7.58688,10.72127 79.790838,5.77775 128.342448,6.16132 l 0.10977,21.18865 c 0.95915,-0.47958 -83.973678,2.63185 -101.741758,0.23199 -16.91779,-2.28502 -29.12358,-16.86069 -26.71046,-27.58196 z"
             id="path4650"
             inkscape:connector-curvature="0"
             sodipodi:nodetypes="cccsc" />
        </g>
      </g>
      <g
         style="fill:#71b969;fill-opacity:1"
         id="g4652"
         transform="translate(-2.6163291,310.7258)">
        <path
           style="color:#000000;clip-rule:nonzero;display:inline;overflow:visible;visibility:visible;opacity:1;isolation:auto;mix-blend-mode:normal;color-interpolation:sRGB;color-interpolation-filters:linearRGB;solid-color:#000000;solid-opacity:1;fill:#71b969;fill-opacity:1;fill-rule:nonzero;stroke:#a02c2c;stroke-width:0.25349179;stroke-linecap:butt;stroke-linejoin:round;stroke-miterlimit:4;stroke-dasharray:none;stroke-dashoffset:0;stroke-opacity:1;marker:none;color-rendering:auto;image-rendering:auto;shape-rendering:auto;text-rendering:auto;enable-background:accumulate"
           d="m 717.78882,215.20439 c -7.58688,10.72127 -73.79084,5.77775 -122.34245,6.16132 l -0.10977,21.18865 c -0.95915,-0.47958 83.97368,2.63185 101.74176,0.23199 16.91779,-2.28502 23.12358,-16.86069 20.71046,-27.58196 z"
           id="path4654"
           inkscape:connector-curvature="0"
           sodipodi:nodetypes="cccsc" />
        <path
           style="color:#000000;clip-rule:nonzero;display:inline;overflow:visible;visibility:visible;opacity:1;isolation:auto;mix-blend-mode:normal;color-interpolation:sRGB;color-interpolation-filters:linearRGB;solid-color:#000000;solid-opacity:1;fill:#71b969;fill-opacity:1;fill-rule:nonzero;stroke:#a02c2c;stroke-width:0.25349179;stroke-linecap:butt;stroke-linejoin:round;stroke-miterlimit:4;stroke-dasharray:none;stroke-dashoffset:0;stroke-opacity:1;marker:none;color-rendering:auto;image-rendering:auto;shape-rendering:auto;text-rendering:auto;enable-background:accumulate"
           d="m 702.94553,246.72708 c -7.58688,10.72127 -32.56104,5.65767 -81.11264,6.04124 l 0.15524,21.18865 c -0.95915,-0.47958 42.47885,2.75193 60.24694,0.35207 16.91779,-2.28502 23.12358,-16.86069 20.71046,-27.58196 z"
           id="path4656"
           inkscape:connector-curvature="0"
           sodipodi:nodetypes="cccsc" />
        <path
           sodipodi:nodetypes="cccsc"
           inkscape:connector-curvature="0"
           id="path4658"
           d="m 686.20019,274.81818 c -7.58688,10.72127 -16.56104,5.92268 -65.11264,6.30625 l 0.15524,20.92364 c -0.95915,-0.47958 26.47886,2.75193 44.24693,0.35207 16.9178,-2.28502 23.12359,-16.86069 20.71047,-27.58196 z"
           style="color:#000000;clip-rule:nonzero;display:inline;overflow:visible;visibility:visible;opacity:1;isolation:auto;mix-blend-mode:normal;color-interpolation:sRGB;color-interpolation-filters:linearRGB;solid-color:#000000;solid-opacity:1;fill:#71b969;fill-opacity:1;fill-rule:nonzero;stroke:#a02c2c;stroke-width:0.25349179;stroke-linecap:butt;stroke-linejoin:round;stroke-miterlimit:4;stroke-dasharray:none;stroke-dashoffset:0;stroke-opacity:1;marker:none;color-rendering:auto;image-rendering:auto;shape-rendering:auto;text-rendering:auto;enable-background:accumulate" />
      </g>
    </g>
  </g>
</svg>
